{"title":"The.Tempest.2011.DVDRip.XViD.AC3-SIC","uid":6924572,"size":1481023947,"categoryP":"video","categoryS":"movies","magnet":"?xt=urn:btih:ff433fda7c96352d7aadafb640524fe854b08cc5&amp;dn=The.Tempest.2011.DVDRip.XViD.AC3-SIC&amp;tr=udp%3A%2F%2Ftracker.openbittorrent.com%3A80&amp;tr=udp%3A%2F%2Fopen.demonii.com%3A1337&amp;tr=udp%3A%2F%2Ftracker.coppersurfer.tk%3A6969&amp;tr=udp%3A%2F%2Fexodus.desync.com%3A6969","seeders":0,"leechers":1,"uploader":"TvTeam","files":5,"time":1325424280,"description":". \n &lt;a href=&quot;\nhttp://www.torrenting.com&quot; rel=&quot;nofollow&quot; target=&quot;_NEW&quot;&gt;\nhttp://www.torrenting.com&lt;/a&gt;          :     Once &amp; For all ;)\n\n\n               www . Torrenting . Com \n\n(((((((((((((= Enjoy No RAR releases =))))))))))))))))))))\n\n\n...................................NFO:....................................\n\n.\n\n\n\n\n\nUUUUUUUUUUUUUUUUUUUUUUUU\nUUUUUUUUUUUUUUUUUUUUUUUUUUUUUU\nUUUUUUUUUUUUUUU\nUUUUUUUUU\nUUUUUU\nUUUUUUU\nUUUUUUUUUUU\nUUUUUUUUUUU\nUUUUUUUUUUUUUU\nUUUUUUUUUUU\nUUUUUUUUU\nUUUUUUUU\nUUUUUUUU\nUUUUUUUU\nUUUUUUUUU\nUUUUUUUUU\nUUUUUUUUU\nUUUUUUUUU\nUUUUUUUUUUUUUU\nUUUUUUUUUUUUUUUUUUUUUUUU\nUUUUUUUUUUUUUUUUUUUUUUUUUU\nUUUUUUUUU\n\n\n\n\n\n\n\n\n\n\nU?U?U?U?U?U?U?\n\nEAAUAA?EAAUAAAAAUEAAUAA?AAA?UAAUUAAAAAU\nEAA?  EAA?AAAAAA?EAA?        AAAAAA?\n  AAAU        \n              \nUAAAAAU      UAAAAAUAAAAAA?UAAAAAU        AAAAAA?\n            AAAAAA?UAAAAAUAAAAAA?        UAAAAAU\n                    \n                    \nAAAU      AAAU      AAAAAAAAAUAAAAAAAAAUAAAAAAAAAUAAAU  AAAU   AAAU   AAAAAAAAAU\n\nThe.Tempest.2011.DVDRip.XViD.AC3-SIC\n\nPoster:\n\nIMDB Link: &lt;a href=&quot;\nhttp://www.imdb.com/title/tt1274300/&quot; rel=&quot;nofollow&quot; target=&quot;_NEW&quot;&gt;\nhttp://www.imdb.com/title/tt1274300/&lt;/a&gt;\n\nDescription:\nShakespeare's epic play is translated from page to screen, with the \ngender of the main character, Prospero, changed from male to female. \n\nMediaInfo:\nFormat                           : AVI\nFormat/Info                      : Audio Video Interleave\nFile size                        : 1.37 GiB\nDuration                         : 1h 50mn\nOverall bit rate                 : 1 779 Kbps\n\nVideo\nID                               : 0\nFormat                           : MPEG-4 Visual\nFormat profile                   : Advanced Simple@L5\nFormat settings, BVOP            : 2\nFormat settings, QPel            : No\nFormat settings, GMC             : No warppoints\nFormat settings, Matrix          : Default (MPEG)\nMuxing mode                      : Packed bitstream\nCodec ID                         : XVID\nCodec ID/Hint                    : XviD\nDuration                         : 1h 50mn\nBit rate                         : 1 451 Kbps\nWidth                            : 720 pixels\nHeight                           : 304 pixels\nDisplay aspect ratio             : 2.35:1\nFrame rate                       : 23.976 fps\nColor space                      : YUV\nChroma subsampling               : 4:2:0\nBit depth                        : 8 bits\nScan type                        : Progressive\nCompression mode                 : Lossy\nBits/(Pixel*Frame)               : 0.277\nStream size                      : 1.12 GiB (82%)\nWriting library                  : XviD 64\n\nAudio\nID                               : 1\nFormat                           : AC-3\nFormat/Info                      : Audio Coding 3\nMode extension                   : CM (complete main)\nCodec ID                         : 2000\nDuration                         : 1h 50mn\nBit rate mode                    : Constant\nBit rate                         : 320 Kbps\nChannel(s)                       : 6 channels\nChannel positions                : Front: L C R, Side: L R, LFE\nSampling rate                    : 48.0 KHz\nBit depth                        : 16 bits\nCompression mode                 : Lossy\nStream size                      : 252 MiB (18%)\nAlignment                        : Aligned on interleaves\nInterleave, duration             : 64 ms (1.53 video frames)\nInterleave, preload duration     : 192 ms\n\nScreenshots:\n\nNote : \nR1 NTSC DVDR-CME... Thanks \n\nSource: \nAnother Day, Another Release... Happy New Year... Enjoy\n\nEnjoy!\n\nRespects to T00NG0D, ELEKTRI4KA, PA, YeFsTe, Box, MrRep and everyone in the struggle...","torrent":{"xt":"urn:btih:ff433fda7c96352d7aadafb640524fe854b08cc5","amp;dn":"The.Tempest.2011.DVDRip.XViD.AC3-SIC","amp;tr":["udp%3A%2F%2Ftracker.openbittorrent.com%3A80","udp%3A%2F%2Fopen.demonii.com%3A1337","udp%3A%2F%2Ftracker.coppersurfer.tk%3A6969","udp%3A%2F%2Fexodus.desync.com%3A6969"],"infoHash":"ff433fda7c96352d7aadafb640524fe854b08cc5","infoHashBuffer":{"type":"Buffer","data":[255,67,63,218,124,150,53,45,122,173,175,182,64,82,79,232,84,176,140,197]},"announce":[],"urlList":[]}}